<svg width="69" height="32" viewBox="0 0 69 32" fill="none" xmlns="http://www.w3.org/2000/svg">
    <path d="M23.5 2.5H8.5C6.29086 2.5 4.5 4.29086 4.5 6.5V21.5C4.5 23.7091 6.29086 25.5 8.5 25.5H23.5C25.7091 25.5 27.5 23.7091 27.5 21.5V6.5C27.5 4.29086 25.7091 2.5 23.5 2.5Z" stroke="#2B2D42"/>
    <path d="M26.5 0.5H5.5C2.73858 0.5 0.5 2.73858 0.5 5.5V26.5C0.5 29.2614 2.73858 31.5 5.5 31.5H26.5C29.2614 31.5 31.5 29.2614 31.5 26.5V5.5C31.5 2.73858 29.2614 0.5 26.5 0.5Z" stroke="#2B2D42"/>
    <path d="M11.1357 11.0869H11.7832C12.3883 11.0869 12.8411 10.9684 13.1416 10.7314C13.4421 10.4902 13.5923 10.1411 13.5923 9.68408C13.5923 9.22282 13.4653 8.88216 13.2114 8.66211C12.9618 8.44206 12.5682 8.33203 12.0308 8.33203H11.1357V11.0869ZM15.5791 9.61426C15.5791 10.613 15.266 11.3768 14.6396 11.9058C14.0176 12.4347 13.131 12.6992 11.98 12.6992H11.1357V16H9.16797V6.71973H12.1323C13.258 6.71973 14.1128 6.96305 14.6968 7.44971C15.285 7.93213 15.5791 8.65365 15.5791 9.61426Z" fill="#2B2D42"/>
    <path d="M60.5 2.5H45.5C43.2909 2.5 41.5 4.29086 41.5 6.5V21.5C41.5 23.7091 43.2909 25.5 45.5 25.5H60.5C62.7091 25.5 64.5 23.7091 64.5 21.5V6.5C64.5 4.29086 62.7091 2.5 60.5 2.5Z" stroke="#2B2D42"/>
    <path d="M63.5 0.5H42.5C39.7386 0.5 37.5 2.73858 37.5 5.5V26.5C37.5 29.2614 39.7386 31.5 42.5 31.5H63.5C66.2614 31.5 68.5 29.2614 68.5 26.5V5.5C68.5 2.73858 66.2614 0.5 63.5 0.5Z" stroke="#2B2D42"/>
    <path d="M53.7725 16H51.811V11.9946H48.1357V16H46.168V6.71973H48.1357V10.3569H51.811V6.71973H53.7725V16Z" fill="#2B2D42"/>
</svg>